<?xml version="1.0" encoding="UTF-8" ?>
<!DOCTYPE svg PUBLIC "-//W3C//DTD SVG 1.1//EN" "http://www.w3.org/Graphics/SVG/1.1/DTD/svg11.dtd">
<svg width="1264pt" height="296pt" viewBox="0 0 1264 296" version="1.1" xmlns="http://www.w3.org/2000/svg">
<g id="#ffffffff">
</g>
<g id="#825cf6ff">
<path fill="#825cf6" opacity="1.00" d=" M 983.31 100.35 C 987.61 99.09 992.66 98.95 996.57 101.41 C 1000.83 104.58 1000.12 111.34 997.11 115.14 C 992.49 119.75 984.45 120.25 978.94 117.04 C 973.53 112.35 976.45 102.09 983.31 100.35 Z" />
<path fill="#825cf6" opacity="1.00" d=" M 816.57 101.37 C 823.83 101.33 831.09 101.36 838.35 101.35 C 832.23 130.57 826.01 159.77 819.85 188.99 C 812.58 189.01 805.31 189.01 798.04 188.99 C 804.23 159.78 810.39 130.57 816.57 101.37 Z" />
<path fill="#825cf6" opacity="1.00" d=" M 678.95 116.91 C 683.59 110.49 691.21 106.57 699.01 105.77 C 708.92 104.78 719.11 106.76 727.88 111.51 C 725.33 117.07 722.84 122.65 720.27 128.20 C 714.22 125.40 707.54 122.27 700.72 123.74 C 697.14 124.48 695.59 128.74 696.88 131.92 C 698.58 136.34 702.91 138.82 706.36 141.72 C 711.98 146.00 716.98 151.82 718.10 159.01 C 719.26 166.71 717.74 175.32 712.25 181.14 C 707.59 186.17 700.86 188.76 694.18 189.61 C 684.59 190.82 674.35 189.80 665.93 184.75 C 665.91 178.17 665.92 171.60 665.93 165.02 C 673.26 169.14 681.57 172.56 690.14 171.81 C 693.15 171.55 696.10 169.24 696.16 166.04 C 696.51 161.68 692.65 158.83 689.74 156.28 C 684.42 151.91 678.77 147.26 676.38 140.57 C 673.41 132.93 673.89 123.57 678.95 116.91 Z" />
<path fill="#825cf6" opacity="1.00" d=" M 931.78 112.45 C 936.65 112.36 941.54 112.33 946.42 112.49 C 945.43 116.70 944.53 120.94 943.64 125.17 C 949.04 125.20 954.44 125.17 959.84 125.19 C 958.66 130.65 957.48 136.11 956.30 141.57 C 950.87 141.60 945.45 141.57 940.03 141.59 C 938.27 149.76 936.32 157.89 934.74 166.10 C 934.30 168.34 933.85 172.04 936.95 172.51 C 940.86 172.69 944.59 171.22 948.23 169.97 C 948.25 175.43 948.22 180.89 948.26 186.34 C 941.30 189.54 933.49 190.47 925.91 189.94 C 921.20 189.56 915.99 187.65 913.84 183.12 C 911.44 178.11 912.08 172.33 912.98 167.03 C 914.58 158.52 916.50 150.08 918.21 141.59 C 915.32 141.58 912.43 141.58 909.56 141.56 C 910.30 138.01 911.08 134.45 911.85 130.90 C 915.85 129.11 920.07 127.82 923.98 125.83 C 926.92 121.59 929.15 116.89 931.78 112.45 Z" />
<path fill="#825cf6" opacity="1.00" d=" M 760.45 124.72 C 768.82 123.34 778.50 123.98 785.06 129.98 C 790.31 134.76 792.09 142.16 791.97 149.03 C 791.97 160.80 788.13 173.11 779.38 181.31 C 770.69 189.58 757.41 192.01 746.08 188.62 C 738.91 186.48 733.53 180.04 732.25 172.74 C 730.39 162.15 732.22 150.87 737.43 141.45 C 742.13 132.84 750.72 126.36 760.45 124.72 M 762.29 141.25 C 758.47 143.70 756.95 148.34 755.60 152.44 C 754.08 158.26 753.07 164.50 754.32 170.46 C 755.17 174.42 760.50 174.57 762.74 171.73 C 767.31 166.54 768.83 159.39 769.56 152.69 C 769.69 149.29 770.25 145.55 768.49 142.46 C 767.22 140.35 764.27 139.99 762.29 141.25 Z" />
<path fill="#825cf6" opacity="1.00" d=" M 1030.45 124.63 C 1038.56 123.41 1047.84 124.05 1054.27 129.72 C 1059.48 134.23 1061.41 141.37 1061.47 148.03 C 1061.67 160.02 1057.95 172.66 1049.10 181.11 C 1040.38 189.55 1026.92 192.06 1015.47 188.58 C 1008.26 186.39 1002.93 179.84 1001.68 172.49 C 999.93 161.83 1001.79 150.50 1007.13 141.09 C 1011.95 132.50 1020.66 126.13 1030.45 124.63 M 1031.41 141.47 C 1025.72 146.27 1024.37 154.31 1023.47 161.31 C 1023.40 165.23 1022.28 170.38 1025.78 173.18 C 1029.16 174.96 1032.63 172.05 1034.20 169.19 C 1038.31 161.93 1039.82 153.23 1038.95 144.98 C 1038.71 141.35 1034.35 139.12 1031.41 141.47 Z" />
<path fill="#825cf6" opacity="1.00" d=" M 1107.45 125.60 C 1112.73 123.69 1118.91 123.41 1124.06 125.87 C 1129.03 128.28 1131.93 133.68 1132.38 139.05 C 1133.10 147.11 1131.19 155.09 1129.54 162.92 C 1127.70 171.61 1125.88 180.30 1124.04 188.99 C 1116.77 189.01 1109.51 189.00 1102.25 189.00 C 1104.66 177.31 1107.12 165.64 1109.55 153.95 C 1110.09 150.72 1110.92 147.37 1110.17 144.11 C 1109.21 140.99 1104.92 140.65 1102.78 142.71 C 1098.62 146.27 1097.31 151.91 1096.07 157.01 C 1093.86 167.63 1091.50 178.22 1089.47 188.88 C 1082.16 189.14 1074.85 188.94 1067.55 189.00 C 1072.03 167.72 1076.50 146.45 1081.01 125.19 C 1086.81 125.18 1092.60 125.18 1098.40 125.18 C 1098.15 128.28 1097.93 131.38 1097.79 134.48 C 1100.36 130.93 1103.13 127.12 1107.45 125.60 Z" />
<path fill="#825cf6" opacity="1.00" d=" M 1152.49 129.51 C 1158.84 124.62 1167.28 123.82 1175.03 124.21 C 1181.60 124.47 1187.96 126.66 1193.59 130.02 C 1191.33 134.75 1189.07 139.47 1186.79 144.18 C 1181.98 141.46 1176.71 138.66 1171.02 139.06 C 1168.18 139.21 1166.94 143.20 1169.07 145.00 C 1171.88 147.30 1175.36 148.58 1178.37 150.59 C 1182.86 153.32 1186.64 157.66 1187.66 162.93 C 1188.93 169.74 1187.42 177.41 1182.47 182.49 C 1177.96 187.19 1171.39 189.22 1165.06 189.82 C 1156.54 190.53 1147.74 189.91 1139.76 186.65 C 1139.72 180.79 1139.75 174.94 1139.75 169.09 C 1146.47 172.62 1154.15 174.92 1161.79 173.81 C 1163.68 173.48 1166.20 172.29 1165.97 169.99 C 1165.96 167.32 1163.42 165.80 1161.47 164.52 C 1156.86 161.65 1151.49 159.29 1148.60 154.44 C 1144.06 146.64 1145.06 135.22 1152.49 129.51 Z" />
<path fill="#825cf6" opacity="1.00" d=" M 848.21 125.19 C 855.48 125.18 862.74 125.18 870.01 125.19 C 867.49 137.43 864.85 149.65 862.37 161.90 C 861.98 164.77 861.10 167.92 862.36 170.69 C 863.90 173.45 867.97 173.10 869.89 170.94 C 873.48 167.22 874.94 162.05 876.15 157.16 C 878.46 146.52 880.63 135.84 882.92 125.19 C 890.18 125.18 897.45 125.16 904.71 125.20 C 900.21 146.47 895.75 167.73 891.25 188.99 C 885.43 189.00 879.61 189.00 873.79 188.99 C 874.05 185.90 874.28 182.80 874.49 179.70 C 871.76 183.54 868.58 187.51 863.86 188.93 C 858.47 190.54 852.24 190.71 847.25 187.80 C 842.75 185.17 840.26 180.03 839.86 174.96 C 839.31 168.61 840.43 162.27 841.71 156.07 C 843.88 145.78 846.04 135.48 848.21 125.19 Z" />
<path fill="#825cf6" opacity="1.00" d=" M 973.50 125.20 C 980.78 125.15 988.07 125.22 995.36 125.15 C 990.98 146.46 986.33 167.71 981.85 188.99 C 974.58 189.01 967.31 189.00 960.04 188.99 C 964.53 167.73 969.02 146.46 973.50 125.20 Z" />
</g>
<g id="#eb382cff">
<path fill="#eb382c" opacity="1.00" d=" M 125.12 188.99 C 130.93 161.55 136.69 134.09 142.52 106.65 C 149.85 106.66 157.19 106.65 164.52 106.66 C 160.02 128.12 155.47 149.57 150.97 171.03 C 159.92 171.04 168.87 171.04 177.82 171.03 C 176.55 177.02 175.27 183.01 173.99 189.00 C 157.70 189.00 141.41 189.00 125.12 188.99 Z" />
<path fill="#eb382c" opacity="1.00" d=" M 200.48 132.48 C 205.74 126.04 214.75 122.27 222.89 125.00 C 227.15 126.27 229.97 129.90 232.44 133.36 C 233.50 130.65 234.53 127.93 235.54 125.21 C 241.36 125.17 247.18 125.19 253.01 125.19 C 248.53 146.46 243.99 167.71 239.52 188.99 C 233.71 189.01 227.91 189.00 222.10 189.00 C 222.30 186.57 222.48 184.15 222.67 181.72 C 220.13 184.51 217.56 187.57 213.89 188.86 C 207.14 191.36 198.39 190.15 193.88 184.10 C 189.01 177.49 188.66 168.76 189.27 160.88 C 190.44 150.70 193.92 140.47 200.48 132.48 M 220.24 142.15 C 215.85 144.65 214.03 149.85 212.58 154.42 C 211.40 159.41 210.46 164.88 212.14 169.86 C 213.17 172.79 217.22 173.38 219.40 171.36 C 223.81 167.50 225.45 161.48 226.49 155.92 C 226.97 151.99 227.61 147.74 225.94 144.01 C 225.12 141.76 222.23 141.05 220.24 142.15 Z" />
<path fill="#eb382c" opacity="1.00" d=" M 292.92 126.87 C 297.53 124.11 303.27 123.61 308.48 124.60 C 313.79 125.65 318.12 129.92 319.58 135.09 C 321.44 141.67 320.28 148.61 319.14 155.21 C 316.81 166.48 314.40 177.73 312.03 189.00 C 304.77 189.00 297.51 189.00 290.25 189.00 C 292.66 177.37 295.10 165.74 297.52 154.11 C 298.08 150.83 298.93 147.42 298.17 144.11 C 297.20 140.96 292.87 140.64 290.72 142.75 C 286.64 146.31 285.31 151.86 284.09 156.90 C 281.84 167.57 279.54 178.22 277.42 188.92 C 270.13 189.10 262.84 188.96 255.55 189.00 C 260.04 167.73 264.51 146.46 269.01 125.19 C 274.81 125.18 280.61 125.19 286.40 125.19 C 286.17 128.20 285.92 131.22 285.81 134.25 C 288.08 131.70 289.88 128.63 292.92 126.87 Z" />
<path fill="#eb382c" opacity="1.00" d=" M 342.56 129.62 C 351.00 123.47 362.13 123.45 372.04 124.94 C 379.85 125.51 387.71 125.03 395.55 125.19 C 394.79 129.05 394.01 132.91 393.29 136.78 C 390.29 137.82 387.28 138.80 384.27 139.77 C 385.54 147.15 384.23 155.42 378.85 160.97 C 372.41 168.06 362.05 169.98 352.91 168.61 C 350.71 167.66 347.46 170.65 349.39 172.65 C 351.83 174.49 355.09 174.49 357.98 174.99 C 364.54 175.89 371.78 176.53 377.00 181.05 C 381.97 185.72 381.57 193.43 379.68 199.43 C 376.99 207.72 368.84 212.78 360.76 214.80 C 353.08 216.67 345.01 217.13 337.16 216.18 C 331.78 215.43 326.23 213.70 322.27 209.81 C 317.67 205.34 317.33 197.37 321.31 192.40 C 324.50 188.27 329.49 186.23 334.24 184.48 C 331.89 182.29 329.11 179.70 329.66 176.14 C 329.98 169.88 335.96 166.39 340.94 163.89 C 330.33 155.48 331.64 137.18 342.56 129.62 M 359.42 137.62 C 355.28 140.13 354.36 145.59 354.20 150.05 C 354.01 152.36 355.16 155.52 357.99 155.28 C 361.11 155.21 362.67 151.98 363.50 149.40 C 364.44 146.10 365.17 142.41 364.01 139.08 C 363.36 137.19 361.04 136.84 359.42 137.62 M 343.40 191.48 C 340.65 192.25 337.46 193.95 337.18 197.14 C 336.82 199.90 339.57 201.59 341.95 201.93 C 346.68 202.71 351.64 202.54 356.25 201.19 C 358.54 200.46 361.32 198.73 361.02 195.97 C 360.88 192.93 357.34 192.32 354.98 191.88 C 351.16 191.39 347.20 190.39 343.40 191.48 Z" />
<path fill="#eb382c" opacity="1.00" d=" M 479.38 131.49 C 484.81 125.41 493.88 122.22 501.68 125.30 C 505.58 126.71 508.08 130.16 510.45 133.36 C 511.50 130.65 512.53 127.94 513.52 125.22 C 519.35 125.16 525.18 125.20 531.01 125.19 C 526.53 146.46 521.99 167.71 517.52 188.99 C 511.71 189.01 505.91 189.00 500.10 189.00 C 500.30 186.57 500.48 184.15 500.67 181.72 C 498.12 184.55 495.50 187.62 491.79 188.91 C 484.84 191.43 475.83 190.00 471.48 183.56 C 466.67 176.39 466.56 167.19 467.50 158.91 C 469.05 149.01 472.58 139.02 479.38 131.49 M 498.26 142.13 C 494.46 144.17 492.71 148.48 491.23 152.30 C 489.53 157.64 488.56 163.50 489.84 169.04 C 490.38 172.07 494.20 173.60 496.71 171.82 C 500.45 169.31 502.14 164.78 503.44 160.65 C 504.73 155.49 505.81 149.87 504.23 144.66 C 503.60 142.10 500.54 140.86 498.26 142.13 Z" />
<path fill="#eb382c" opacity="1.00" d=" M 548.13 130.14 C 555.38 124.39 565.18 123.52 574.08 124.42 C 583.25 125.83 592.56 124.95 601.79 125.18 C 601.04 129.06 600.27 132.95 599.51 136.83 C 596.51 137.81 593.51 138.79 590.52 139.77 C 591.79 147.19 590.47 155.47 585.05 161.02 C 578.53 168.17 568.08 169.96 558.87 168.60 C 556.59 167.84 555.31 170.18 554.69 171.96 C 558.46 175.06 563.59 174.67 568.13 175.50 C 573.79 176.38 580.05 177.53 584.11 181.94 C 588.25 186.84 587.68 193.97 585.83 199.70 C 583.05 207.85 575.00 212.80 567.01 214.79 C 559.21 216.70 551.01 217.15 543.05 216.13 C 537.70 215.34 532.19 213.55 528.32 209.60 C 523.92 205.13 523.66 197.42 527.47 192.51 C 530.65 188.32 535.70 186.24 540.49 184.48 C 538.08 182.27 535.28 179.58 535.92 175.96 C 536.36 169.80 542.25 166.36 547.19 163.90 C 536.83 155.66 537.80 137.98 548.13 130.14 M 565.50 137.69 C 561.76 140.08 560.81 144.94 560.46 149.04 C 560.36 151.21 560.49 154.40 563.04 155.10 C 565.58 155.99 567.89 153.85 568.83 151.68 C 570.56 147.90 571.42 143.47 570.40 139.40 C 569.83 137.28 567.26 136.70 565.50 137.69 M 549.36 191.57 C 545.84 192.29 541.86 195.90 544.03 199.72 C 547.34 203.07 552.63 202.33 556.92 202.24 C 560.65 201.80 565.83 201.23 567.25 197.08 C 567.97 193.90 564.64 192.35 562.07 192.04 C 557.89 191.44 553.52 190.31 549.36 191.57 Z" />
<path fill="#eb382c" opacity="1.00" d=" M 611.07 135.96 C 619.48 125.57 634.26 122.08 646.93 125.15 C 652.84 126.60 658.52 130.69 660.25 136.75 C 662.40 144.68 659.57 153.99 652.67 158.73 C 644.18 164.78 633.29 165.16 623.25 165.29 C 623.46 168.70 624.56 172.76 628.32 173.76 C 636.20 175.85 644.15 172.46 651.09 168.97 C 651.11 174.08 651.06 179.20 651.13 184.31 C 641.30 189.52 629.65 191.39 618.74 189.16 C 610.32 187.41 603.60 180.22 602.20 171.77 C 600.13 159.35 603.05 145.82 611.07 135.96 M 632.02 140.01 C 628.25 142.70 626.47 147.30 625.55 151.68 C 629.44 151.43 633.59 151.30 636.97 149.10 C 639.59 147.54 641.06 144.09 639.93 141.18 C 638.51 138.28 634.36 138.30 632.02 140.01 Z" />
<path fill="#eb382c" opacity="1.00" d=" M 404.46 125.20 C 411.72 125.18 418.99 125.19 426.26 125.19 C 423.68 137.77 420.92 150.32 418.44 162.93 C 418.15 165.76 417.13 169.30 419.34 171.62 C 421.45 173.54 424.80 172.62 426.49 170.60 C 429.86 166.80 431.29 161.77 432.46 156.94 C 434.74 146.37 436.92 135.77 439.16 125.19 C 446.43 125.19 453.69 125.19 460.95 125.19 C 456.50 146.45 451.95 167.70 447.53 188.96 C 441.70 189.03 435.87 188.99 430.04 189.00 C 430.30 185.89 430.55 182.78 430.76 179.67 C 428.08 183.30 425.20 187.20 420.73 188.69 C 414.93 190.68 407.94 190.81 402.69 187.27 C 398.40 184.34 396.28 179.10 396.03 174.04 C 395.67 167.46 396.92 160.93 398.29 154.52 C 400.35 144.75 402.40 134.97 404.46 125.20 Z" />
</g>
</svg>
